<?xml version="1.0" encoding="utf-8"?>
<!-- Generator: Adobe Illustrator 15.0.0, SVG Export Plug-In . SVG Version: 6.00 Build 0)  -->
<!DOCTYPE svg PUBLIC "-//W3C//DTD SVG 1.1//EN" "http://www.w3.org/Graphics/SVG/1.1/DTD/svg11.dtd">
<svg version="1.1" id="Layer_1" xmlns="http://www.w3.org/2000/svg" xmlns:xlink="http://www.w3.org/1999/xlink" x="0px" y="0px"
	 width="612px" height="792px" viewBox="0 0 612 792" enable-background="new 0 0 612 792" xml:space="preserve">
<title>Caprine app icon - Created by Sindre Sorhus</title>
<g id="XMLID_2_">
	<g>
		<path fill="#FFFFFF" d="M512.86,416.36c1.68,8.069-6.91,18.02-12.49,26.239c-6.09,8.99-12.75,18.12-19.99,23.74
			c-19.61,20.04-39.57,41.72-79.96,38.73c-43.64-3.221-52.35-42.351-102.46-37.48c-21.34,2.07-35.87,18.271-56.22,27.49
			C174.17,525.7,118.1,465.27,96.81,415.12c10.17,16.36,23.15,33.08,44.98,36.229c41.34,5.96,83.81-33.09,124.94-24.989
			c15.67,3.08,26.66,13.1,41.23,19.989c14.22-7.14,23.45-17.96,39.98-19.989C398.98,420.1,450.8,475.87,495.37,440.1
			C503.41,433.66,507.42,428.79,512.86,416.36z"/>
		<path fill="#FFFFFF" d="M599.07,355.14c0,12.91,0,25.82,0,38.73c-10.23,72.49-38.471,118.35-84.96,158.68
			c-6.841,5.94-15.391,11.95-16.24,17.49c-2.19,14.31,12.52,32.56,19.99,41.229c9.05,10.5,37.22,22.051,37.479,37.49
			c0.25,13.88-8.79,17.74-21.24,21.24c-2.909,0-5.83,0-8.739,0c-44.391-3.32-83.011-15.45-118.7-32.49
			c-11.9-5.68-24.78-15.25-33.73-16.24c-10.63-1.18-22.51,3.99-32.489,5c-83.74,8.471-157.661-15.39-208.65-48.729
			c-58.19-38.05-102.7-89.8-117.45-178.67c0-15.82,0-31.65,0-47.48C40.91,209.7,138.48,139.02,289.22,121.5c11.66,0,23.32,0,34.98,0
			C475.72,139.48,574.22,210.49,599.07,355.14z M549.1,390.13c5.78-80.78-37.279-133.3-82.46-166.18
			c-41.909-30.49-96.699-51.59-166.18-49.97c-68.19,1.59-122.79,24.89-163.67,57.47c-38.18,30.43-73.55,74.76-73.72,142.43
			c-0.17,66.16,32.97,110.601,69.97,141.19c47.36,39.149,112.49,65.17,196.16,59.97c15.03-0.93,33.31-8.63,47.479-6.25
			c6.891,1.16,13.801,8.65,21.24,13.75c22.36,15.33,41.47,28.64,71.21,32.479c-3.649-19.51-32.29-42.079-26.229-68.72
			c2.09-9.21,25.819-22.35,34.979-29.979C513.55,486.59,544.96,447.94,549.1,390.13z"/>
	</g>
	<g>
	</g>
</g>
</svg>
